<svg width="700" height="355" viewBox="0 0 700 355" fill="none" xmlns="http://www.w3.org/2000/svg">
<g clip-path="url(#clip0_115_275)">
<path d="M14.6696 154.298H9.43575V148.99H7.34711V154.298H2.13779V156.19H7.34711V161.522H9.43575V156.19H14.6696V154.298Z" fill="#E1E1E1" fill-opacity="0.1"/>
<path d="M39.9292 154.298H34.6953V148.99H32.6066V154.298H27.3973V156.19H32.6066V161.522H34.6953V156.19H39.9292V154.298Z" fill="#E1E1E1" fill-opacity="0.1"/>
<path d="M65.1889 154.298H59.955V148.99H57.8664V154.298H52.6571V156.19H57.8664V161.522H59.955V156.19H65.1889V154.298Z" fill="#E1E1E1" fill-opacity="0.1"/>
<path d="M90.4485 154.298H85.2146V148.99H83.1259V154.298H77.9166V156.19H83.1259V161.522H85.2146V156.19H90.4485V154.298Z" fill="#E1E1E1" fill-opacity="0.1"/>
<path d="M115.708 154.298H110.474V148.99H108.385V154.298H103.176V156.19H108.385V161.522H110.474V156.19H115.708V154.298Z" fill="#E1E1E1" fill-opacity="0.1"/>
<path d="M140.967 154.298H135.734V148.99H133.645V154.298H128.436V156.19H133.645V161.522H135.734V156.19H140.967V154.298Z" fill="#E1E1E1" fill-opacity="0.1"/>
<path d="M166.227 154.298H160.993V148.99H158.905V154.298H153.695V156.19H158.905V161.522H160.993V156.19H166.227V154.298Z" fill="#E1E1E1" fill-opacity="0.1"/>
<path d="M191.487 154.298H186.253V148.99H184.164V154.298H178.955V156.19H184.164V161.522H186.253V156.19H191.487V154.298Z" fill="#E1E1E1" fill-opacity="0.1"/>
<path d="M216.746 154.298H211.512V148.99H209.424V154.298H204.214V156.19H209.424V161.522H211.512V156.19H216.746V154.298Z" fill="#E1E1E1" fill-opacity="0.1"/>
<path d="M242.006 154.298H236.772V148.99H234.683V154.298H229.474V156.19H234.683V161.522H236.772V156.19H242.006V154.298Z" fill="#E1E1E1" fill-opacity="0.1"/>
<path d="M267.266 154.298H262.032V148.99H259.943V154.298H254.734V156.19H259.943V161.522H262.032V156.19H267.266V154.298Z" fill="#E1E1E1" fill-opacity="0.1"/>
<path d="M292.525 154.298H287.291V148.99H285.203V154.298H279.993V156.19H285.203V161.522H287.291V156.19H292.525V154.298Z" fill="#E1E1E1" fill-opacity="0.1"/>
<path d="M317.785 154.298H312.551V148.99H310.462V154.298H305.253V156.19H310.462V161.522H312.551V156.19H317.785V154.298Z" fill="#E1E1E1" fill-opacity="0.1"/>
<path d="M343.044 154.298H337.81V148.99H335.722V154.298H330.512V156.19H335.722V161.522H337.81V156.19H343.044V154.298Z" fill="#E1E1E1" fill-opacity="0.1"/>
<path d="M368.304 154.298H363.07V148.99H360.981V154.298H355.772V156.19H360.981V161.522H363.07V156.19H368.304V154.298Z" fill="#E1E1E1" fill-opacity="0.1"/>
<path d="M393.563 154.298H388.33V148.99H386.241V154.298H381.032V156.19H386.241V161.522H388.33V156.19H393.563V154.298Z" fill="#E1E1E1" fill-opacity="0.1"/>
<path d="M418.823 154.298H413.589V148.99H411.5V154.298H406.291V156.19H411.5V161.522H413.589V156.19H418.823V154.298Z" fill="#E1E1E1" fill-opacity="0.1"/>
<path d="M444.082 154.298H438.849V148.99H436.76V154.298H431.551V156.19H436.76V161.522H438.849V156.19H444.082V154.298Z" fill="#E1E1E1" fill-opacity="0.1"/>
<path d="M469.342 154.298H464.108V148.99H462.02V154.298H456.81V156.19H462.02V161.522H464.108V156.19H469.342V154.298Z" fill="#E1E1E1" fill-opacity="0.1"/>
<path d="M494.602 154.298H489.368V148.99H487.279V154.298H482.07V156.19H487.279V161.522H489.368V156.19H494.602V154.298Z" fill="#E1E1E1" fill-opacity="0.1"/>
<path d="M519.861 154.298H514.627V148.99H512.539V154.298H507.329V156.19H512.539V161.522H514.627V156.19H519.861V154.298Z" fill="#E1E1E1" fill-opacity="0.1"/>
<path d="M545.121 154.298H539.887V148.99H537.798V154.298H532.589V156.19H537.798V161.522H539.887V156.19H545.121V154.298Z" fill="#E1E1E1" fill-opacity="0.1"/>
<path d="M570.381 154.298H565.147V148.99H563.058V154.298H557.849V156.19H563.058V161.522H565.147V156.19H570.381V154.298Z" fill="#E1E1E1" fill-opacity="0.1"/>
<path d="M595.64 154.298H590.406V148.99H588.318V154.298H583.108V156.19H588.318V161.522H590.406V156.19H595.64V154.298Z" fill="#E1E1E1" fill-opacity="0.1"/>
<path d="M620.9 154.298H615.666V148.99H613.577V154.298H608.368V156.19H613.577V161.522H615.666V156.19H620.9V154.298Z" fill="#E1E1E1" fill-opacity="0.1"/>
<path d="M646.159 154.298H640.925V148.99H638.837V154.298H633.628V156.19H638.837V161.522H640.925V156.19H646.159V154.298Z" fill="#E1E1E1" fill-opacity="0.1"/>
<path d="M671.419 154.298H666.185V148.99H664.096V154.298H658.887V156.19H664.096V161.522H666.185V156.19H671.419V154.298Z" fill="#E1E1E1" fill-opacity="0.1"/>
<path d="M696.678 154.298H691.445V148.99H689.356V154.298H684.147V156.19H689.356V161.522H691.445V156.19H696.678V154.298Z" fill="#E1E1E1" fill-opacity="0.1"/>
<path d="M65.6843 109.038H60.4504V103.73H58.3618V109.038H53.1524V110.93H58.3618V116.262H60.4504V110.93H65.6843V109.038Z" fill="#E1E1E1" fill-opacity="0.1"/>
<path d="M90.9438 109.038H85.7099V103.73H83.6213V109.038H78.412V110.93H83.6213V116.262H85.7099V110.93H90.9438V109.038Z" fill="#E1E1E1" fill-opacity="0.1"/>
<path d="M116.204 109.038H110.97V103.73H108.881V109.038H103.672V110.93H108.881V116.262H110.97V110.93H116.204V109.038Z" fill="#E1E1E1" fill-opacity="0.1"/>
<path d="M141.463 109.038H136.229V103.73H134.141V109.038H128.931V110.93H134.141V116.262H136.229V110.93H141.463V109.038Z" fill="#E1E1E1" fill-opacity="0.1"/>
<path d="M166.723 109.038H161.489V103.73H159.4V109.038H154.191V110.93H159.4V116.262H161.489V110.93H166.723V109.038Z" fill="#E1E1E1" fill-opacity="0.1"/>
<path d="M191.982 109.038H186.748V103.73H184.66V109.038H179.45V110.93H184.66V116.262H186.748V110.93H191.982V109.038Z" fill="#E1E1E1" fill-opacity="0.1"/>
<path d="M217.242 109.038H212.008V103.73H209.919V109.038H204.71V110.93H209.919V116.262H212.008V110.93H217.242V109.038Z" fill="#E1E1E1" fill-opacity="0.1"/>
<path d="M242.501 109.038H237.268V103.73H235.179V109.038H229.97V110.93H235.179V116.262H237.268V110.93H242.501V109.038Z" fill="#E1E1E1" fill-opacity="0.1"/>
<path d="M267.761 109.038H262.527V103.73H260.438V109.038H255.229V110.93H260.438V116.262H262.527V110.93H267.761V109.038Z" fill="#E1E1E1" fill-opacity="0.1"/>
<path d="M293.02 109.038H287.787V103.73H285.698V109.038H280.489V110.93H285.698V116.262H287.787V110.93H293.02V109.038Z" fill="#E1E1E1" fill-opacity="0.1"/>
<path d="M318.28 109.038H313.046V103.73H310.958V109.038H305.748V110.93H310.958V116.262H313.046V110.93H318.28V109.038Z" fill="#E1E1E1" fill-opacity="0.1"/>
<path d="M343.54 109.038H338.306V103.73H336.217V109.038H331.008V110.93H336.217V116.262H338.306V110.93H343.54V109.038Z" fill="#E1E1E1" fill-opacity="0.1"/>
<path d="M368.799 109.038H363.565V103.73H361.477V109.038H356.267V110.93H361.477V116.262H363.565V110.93H368.799V109.038Z" fill="#E1E1E1" fill-opacity="0.1"/>
<path d="M394.059 109.038H388.825V103.73H386.736V109.038H381.527V110.93H386.736V116.262H388.825V110.93H394.059V109.038Z" fill="#E1E1E1" fill-opacity="0.1"/>
<path d="M419.319 109.038H414.085V103.73H411.996V109.038H406.787V110.93H411.996V116.262H414.085V110.93H419.319V109.038Z" fill="#E1E1E1" fill-opacity="0.1"/>
<path d="M444.578 109.038H439.344V103.73H437.256V109.038H432.046V110.93H437.256V116.262H439.344V110.93H444.578V109.038Z" fill="#E1E1E1" fill-opacity="0.1"/>
<path d="M469.838 109.038H464.604V103.73H462.515V109.038H457.306V110.93H462.515V116.262H464.604V110.93H469.838V109.038Z" fill="#E1E1E1" fill-opacity="0.1"/>
<path d="M495.097 109.038H489.863V103.73H487.775V109.038H482.565V110.93H487.775V116.262H489.863V110.93H495.097V109.038Z" fill="#E1E1E1" fill-opacity="0.1"/>
<path d="M520.357 109.038H515.123V103.73H513.034V109.038H507.825V110.93H513.034V116.262H515.123V110.93H520.357V109.038Z" fill="#E1E1E1" fill-opacity="0.1"/>
<path d="M545.616 109.038H540.383V103.73H538.294V109.038H533.085V110.93H538.294V116.262H540.383V110.93H545.616V109.038Z" fill="#E1E1E1" fill-opacity="0.1"/>
<path d="M570.876 109.038H565.642V103.73H563.554V109.038H558.344V110.93H563.554V116.262H565.642V110.93H570.876V109.038Z" fill="#E1E1E1" fill-opacity="0.1"/>
<path d="M596.135 109.038H590.902V103.73H588.813V109.038H583.604V110.93H588.813V116.262H590.902V110.93H596.135V109.038Z" fill="#E1E1E1" fill-opacity="0.1"/>
<path d="M621.395 109.038H616.161V103.73H614.073V109.038H608.863V110.93H614.073V116.262H616.161V110.93H621.395V109.038Z" fill="#E1E1E1" fill-opacity="0.1"/>
<path d="M646.655 109.038H641.421V103.73H639.332V109.038H634.123V110.93H639.332V116.262H641.421V110.93H646.655V109.038Z" fill="#E1E1E1" fill-opacity="0.1"/>
<path d="M116.204 63.7783H110.97V58.4707H108.881V63.7783H103.672V65.6704H108.881V71.0025H110.97V65.6704H116.204V63.7783Z" fill="#E1E1E1" fill-opacity="0.1"/>
<path d="M141.463 63.7783H136.229V58.4707H134.141V63.7783H128.931V65.6704H134.141V71.0025H136.229V65.6704H141.463V63.7783Z" fill="#E1E1E1" fill-opacity="0.1"/>
<path d="M166.723 63.7783H161.489V58.4707H159.4V63.7783H154.191V65.6704H159.4V71.0025H161.489V65.6704H166.723V63.7783Z" fill="#E1E1E1" fill-opacity="0.1"/>
<path d="M191.982 63.7783H186.748V58.4707H184.66V63.7783H179.451V65.6704H184.66V71.0025H186.748V65.6704H191.982V63.7783Z" fill="#E1E1E1" fill-opacity="0.1"/>
<path d="M217.242 63.7783H212.008V58.4707H209.919V63.7783H204.71V65.6704H209.919V71.0025H212.008V65.6704H217.242V63.7783Z" fill="#E1E1E1" fill-opacity="0.1"/>
<path d="M242.501 63.7783H237.268V58.4707H235.179V63.7783H229.97V65.6704H235.179V71.0025H237.268V65.6704H242.501V63.7783Z" fill="#E1E1E1" fill-opacity="0.1"/>
<path d="M267.761 63.7783H262.527V58.4707H260.439V63.7783H255.229V65.6704H260.439V71.0025H262.527V65.6704H267.761V63.7783Z" fill="#E1E1E1" fill-opacity="0.1"/>
<path d="M293.021 63.7783H287.787V58.4707H285.698V63.7783H280.489V65.6704H285.698V71.0025H287.787V65.6704H293.021V63.7783Z" fill="#E1E1E1" fill-opacity="0.1"/>
<path d="M318.28 63.7783H313.046V58.4707H310.958V63.7783H305.748V65.6704H310.958V71.0025H313.046V65.6704H318.28V63.7783Z" fill="#E1E1E1" fill-opacity="0.1"/>
<path d="M343.54 63.7783H338.306V58.4707H336.217V63.7783H331.008V65.6704H336.217V71.0025H338.306V65.6704H343.54V63.7783Z" fill="#E1E1E1" fill-opacity="0.1"/>
<path d="M368.8 63.7783H363.566V58.4707H361.477V63.7783H356.268V65.6704H361.477V71.0025H363.566V65.6704H368.8V63.7783Z" fill="#E1E1E1" fill-opacity="0.1"/>
<path d="M394.059 63.7783H388.825V58.4707H386.737V63.7783H381.527V65.6704H386.737V71.0025H388.825V65.6704H394.059V63.7783Z" fill="#E1E1E1" fill-opacity="0.1"/>
<path d="M419.319 63.7783H414.085V58.4707H411.996V63.7783H406.787V65.6704H411.996V71.0025H414.085V65.6704H419.319V63.7783Z" fill="#E1E1E1" fill-opacity="0.1"/>
<path d="M444.578 63.7783H439.344V58.4707H437.256V63.7783H432.046V65.6704H437.256V71.0025H439.344V65.6704H444.578V63.7783Z" fill="#E1E1E1" fill-opacity="0.1"/>
<path d="M469.838 63.7783H464.604V58.4707H462.515V63.7783H457.306V65.6704H462.515V71.0025H464.604V65.6704H469.838V63.7783Z" fill="#E1E1E1" fill-opacity="0.1"/>
<path d="M495.097 63.7783H489.863V58.4707H487.775V63.7783H482.566V65.6704H487.775V71.0025H489.863V65.6704H495.097V63.7783Z" fill="#E1E1E1" fill-opacity="0.1"/>
<path d="M520.357 63.7783H515.123V58.4707H513.034V63.7783H507.825V65.6704H513.034V71.0025H515.123V65.6704H520.357V63.7783Z" fill="#E1E1E1" fill-opacity="0.1"/>
<path d="M545.616 63.7783H540.383V58.4707H538.294V63.7783H533.085V65.6704H538.294V71.0025H540.383V65.6704H545.616V63.7783Z" fill="#E1E1E1" fill-opacity="0.1"/>
<path d="M570.876 63.7783H565.642V58.4707H563.554V63.7783H558.344V65.6704H563.554V71.0025H565.642V65.6704H570.876V63.7783Z" fill="#E1E1E1" fill-opacity="0.1"/>
<path d="M596.135 63.7783H590.902V58.4707H588.813V63.7783H583.604V65.6704H588.813V71.0025H590.902V65.6704H596.135V63.7783Z" fill="#E1E1E1" fill-opacity="0.1"/>
<path d="M166.723 18.5188H161.489V13.2112H159.4V18.5188H154.191V20.4108H159.4V25.743H161.489V20.4108H166.723V18.5188Z" fill="#E1E1E1" fill-opacity="0.1"/>
<path d="M191.982 18.5188H186.748V13.2112H184.66V18.5188H179.451V20.4108H184.66V25.743H186.748V20.4108H191.982V18.5188Z" fill="#E1E1E1" fill-opacity="0.1"/>
<path d="M217.242 18.5188H212.008V13.2112H209.92V18.5188H204.71V20.4108H209.92V25.743H212.008V20.4108H217.242V18.5188Z" fill="#E1E1E1" fill-opacity="0.1"/>
<path d="M242.502 18.5188H237.268V13.2112H235.179V18.5188H229.97V20.4108H235.179V25.743H237.268V20.4108H242.502V18.5188Z" fill="#E1E1E1" fill-opacity="0.1"/>
<path d="M267.761 18.5188H262.527V13.2112H260.439V18.5188H255.229V20.4108H260.439V25.743H262.527V20.4108H267.761V18.5188Z" fill="#E1E1E1" fill-opacity="0.1"/>
<path d="M293.021 18.5188H287.787V13.2112H285.698V18.5188H280.489V20.4108H285.698V25.743H287.787V20.4108H293.021V18.5188Z" fill="#E1E1E1" fill-opacity="0.1"/>
<path d="M318.28 18.5188H313.047V13.2112H310.958V18.5188H305.749V20.4108H310.958V25.743H313.047V20.4108H318.28V18.5188Z" fill="#E1E1E1" fill-opacity="0.1"/>
<path d="M343.54 18.5188H338.306V13.2112H336.217V18.5188H331.008V20.4108H336.217V25.743H338.306V20.4108H343.54V18.5188Z" fill="#E1E1E1" fill-opacity="0.1"/>
<path d="M368.8 18.5188H363.566V13.2112H361.477V18.5188H356.268V20.4108H361.477V25.743H363.566V20.4108H368.8V18.5188Z" fill="#E1E1E1" fill-opacity="0.1"/>
<path d="M394.059 18.5188H388.825V13.2112H386.737V18.5188H381.527V20.4108H386.737V25.743H388.825V20.4108H394.059V18.5188Z" fill="#E1E1E1" fill-opacity="0.1"/>
<path d="M419.319 18.5188H414.085V13.2112H411.996V18.5188H406.787V20.4108H411.996V25.743H414.085V20.4108H419.319V18.5188Z" fill="#E1E1E1" fill-opacity="0.1"/>
<path d="M444.578 18.5188H439.344V13.2112H437.256V18.5188H432.046V20.4108H437.256V25.743H439.344V20.4108H444.578V18.5188Z" fill="#E1E1E1" fill-opacity="0.1"/>
<path d="M469.838 18.5188H464.604V13.2112H462.515V18.5188H457.306V20.4108H462.515V25.743H464.604V20.4108H469.838V18.5188Z" fill="#E1E1E1" fill-opacity="0.1"/>
<path d="M495.097 18.5188H489.863V13.2112H487.775V18.5188H482.566V20.4108H487.775V25.743H489.863V20.4108H495.097V18.5188Z" fill="#E1E1E1" fill-opacity="0.1"/>
<path d="M520.357 18.5188H515.123V13.2112H513.035V18.5188H507.825V20.4108H513.035V25.743H515.123V20.4108H520.357V18.5188Z" fill="#E1E1E1" fill-opacity="0.1"/>
<path d="M545.616 18.5188H540.383V13.2112H538.294V18.5188H533.085V20.4108H538.294V25.743H540.383V20.4108H545.616V18.5188Z" fill="#E1E1E1" fill-opacity="0.1"/>
<path d="M14.6696 200.487H9.43575V205.795H7.34711V200.487H2.13779V198.595H7.34711V193.263H9.43575V198.595H14.6696V200.487Z" fill="#E1E1E1" fill-opacity="0.1"/>
<path d="M39.9292 200.487H34.6953V205.795H32.6066V200.487H27.3973V198.595H32.6066V193.263H34.6953V198.595H39.9292V200.487Z" fill="#E1E1E1" fill-opacity="0.1"/>
<path d="M65.1889 200.487H59.955V205.795H57.8664V200.487H52.6571V198.595H57.8664V193.263H59.955V198.595H65.1889V200.487Z" fill="#E1E1E1" fill-opacity="0.1"/>
<path d="M90.4485 200.487H85.2146V205.795H83.1259V200.487H77.9166V198.595H83.1259V193.263H85.2146V198.595H90.4485V200.487Z" fill="#E1E1E1" fill-opacity="0.1"/>
<path d="M115.708 200.487H110.474V205.795H108.385V200.487H103.176V198.595H108.385V193.263H110.474V198.595H115.708V200.487Z" fill="#E1E1E1" fill-opacity="0.1"/>
<path d="M140.967 200.487H135.734V205.795H133.645V200.487H128.436V198.595H133.645V193.263H135.734V198.595H140.967V200.487Z" fill="#E1E1E1" fill-opacity="0.1"/>
<path d="M166.227 200.487H160.993V205.795H158.905V200.487H153.695V198.595H158.905V193.263H160.993V198.595H166.227V200.487Z" fill="#E1E1E1" fill-opacity="0.1"/>
<path d="M191.487 200.487H186.253V205.795H184.164V200.487H178.955V198.595H184.164V193.263H186.253V198.595H191.487V200.487Z" fill="#E1E1E1" fill-opacity="0.1"/>
<path d="M216.746 200.487H211.512V205.795H209.424V200.487H204.214V198.595H209.424V193.263H211.512V198.595H216.746V200.487Z" fill="#E1E1E1" fill-opacity="0.1"/>
<path d="M242.006 200.487H236.772V205.795H234.683V200.487H229.474V198.595H234.683V193.263H236.772V198.595H242.006V200.487Z" fill="#E1E1E1" fill-opacity="0.1"/>
<path d="M267.266 200.487H262.032V205.795H259.943V200.487H254.734V198.595H259.943V193.263H262.032V198.595H267.266V200.487Z" fill="#E1E1E1" fill-opacity="0.1"/>
<path d="M292.525 200.487H287.291V205.795H285.203V200.487H279.993V198.595H285.203V193.263H287.291V198.595H292.525V200.487Z" fill="#E1E1E1" fill-opacity="0.1"/>
<path d="M317.785 200.487H312.551V205.795H310.462V200.487H305.253V198.595H310.462V193.263H312.551V198.595H317.785V200.487Z" fill="#E1E1E1" fill-opacity="0.1"/>
<path d="M343.044 200.487H337.81V205.795H335.722V200.487H330.512V198.595H335.722V193.263H337.81V198.595H343.044V200.487Z" fill="#E1E1E1" fill-opacity="0.1"/>
<path d="M368.304 200.487H363.07V205.795H360.981V200.487H355.772V198.595H360.981V193.263H363.07V198.595H368.304V200.487Z" fill="#E1E1E1" fill-opacity="0.1"/>
<path d="M393.563 200.487H388.33V205.795H386.241V200.487H381.032V198.595H386.241V193.263H388.33V198.595H393.563V200.487Z" fill="#E1E1E1" fill-opacity="0.1"/>
<path d="M418.823 200.487H413.589V205.795H411.5V200.487H406.291V198.595H411.5V193.263H413.589V198.595H418.823V200.487Z" fill="#E1E1E1" fill-opacity="0.1"/>
<path d="M444.082 200.487H438.849V205.795H436.76V200.487H431.551V198.595H436.76V193.263H438.849V198.595H444.082V200.487Z" fill="#E1E1E1" fill-opacity="0.1"/>
<path d="M469.342 200.487H464.108V205.795H462.02V200.487H456.81V198.595H462.02V193.263H464.108V198.595H469.342V200.487Z" fill="#E1E1E1" fill-opacity="0.1"/>
<path d="M494.602 200.487H489.368V205.795H487.279V200.487H482.07V198.595H487.279V193.263H489.368V198.595H494.602V200.487Z" fill="#E1E1E1" fill-opacity="0.1"/>
<path d="M519.861 200.487H514.627V205.795H512.539V200.487H507.329V198.595H512.539V193.263H514.627V198.595H519.861V200.487Z" fill="#E1E1E1" fill-opacity="0.1"/>
<path d="M545.121 200.487H539.887V205.795H537.798V200.487H532.589V198.595H537.798V193.263H539.887V198.595H545.121V200.487Z" fill="#E1E1E1" fill-opacity="0.1"/>
<path d="M570.381 200.487H565.147V205.795H563.058V200.487H557.849V198.595H563.058V193.263H565.147V198.595H570.381V200.487Z" fill="#E1E1E1" fill-opacity="0.1"/>
<path d="M595.64 200.487H590.406V205.795H588.318V200.487H583.108V198.595H588.318V193.263H590.406V198.595H595.64V200.487Z" fill="#E1E1E1" fill-opacity="0.1"/>
<path d="M620.9 200.487H615.666V205.795H613.577V200.487H608.368V198.595H613.577V193.263H615.666V198.595H620.9V200.487Z" fill="#E1E1E1" fill-opacity="0.1"/>
<path d="M646.159 200.487H640.925V205.795H638.837V200.487H633.628V198.595H638.837V193.263H640.925V198.595H646.159V200.487Z" fill="#E1E1E1" fill-opacity="0.1"/>
<path d="M671.419 200.487H666.185V205.795H664.096V200.487H658.887V198.595H664.096V193.263H666.185V198.595H671.419V200.487Z" fill="#E1E1E1" fill-opacity="0.1"/>
<path d="M696.678 200.487H691.445V205.795H689.356V200.487H684.147V198.595H689.356V193.263H691.445V198.595H696.678V200.487Z" fill="#E1E1E1" fill-opacity="0.1"/>
<path d="M65.6843 245.747H60.4504V251.054H58.3618V245.747H53.1524V243.855H58.3618V238.522H60.4504V243.855H65.6843V245.747Z" fill="#E1E1E1" fill-opacity="0.1"/>
<path d="M90.9438 245.747H85.7099V251.054H83.6213V245.747H78.412V243.855H83.6213V238.522H85.7099V243.855H90.9438V245.747Z" fill="#E1E1E1" fill-opacity="0.1"/>
<path d="M116.204 245.747H110.97V251.054H108.881V245.747H103.672V243.855H108.881V238.522H110.97V243.855H116.204V245.747Z" fill="#E1E1E1" fill-opacity="0.1"/>
<path d="M141.463 245.747H136.229V251.054H134.141V245.747H128.931V243.855H134.141V238.522H136.229V243.855H141.463V245.747Z" fill="#E1E1E1" fill-opacity="0.1"/>
<path d="M166.723 245.747H161.489V251.054H159.4V245.747H154.191V243.855H159.4V238.522H161.489V243.855H166.723V245.747Z" fill="#E1E1E1" fill-opacity="0.1"/>
<path d="M191.982 245.747H186.748V251.054H184.66V245.747H179.45V243.855H184.66V238.522H186.748V243.855H191.982V245.747Z" fill="#E1E1E1" fill-opacity="0.1"/>
<path d="M217.242 245.747H212.008V251.054H209.919V245.747H204.71V243.855H209.919V238.522H212.008V243.855H217.242V245.747Z" fill="#E1E1E1" fill-opacity="0.1"/>
<path d="M242.501 245.747H237.268V251.054H235.179V245.747H229.97V243.855H235.179V238.522H237.268V243.855H242.501V245.747Z" fill="#E1E1E1" fill-opacity="0.1"/>
<path d="M267.761 245.747H262.527V251.054H260.438V245.747H255.229V243.855H260.438V238.522H262.527V243.855H267.761V245.747Z" fill="#E1E1E1" fill-opacity="0.1"/>
<path d="M293.02 245.747H287.787V251.054H285.698V245.747H280.489V243.855H285.698V238.522H287.787V243.855H293.02V245.747Z" fill="#E1E1E1" fill-opacity="0.1"/>
<path d="M318.28 245.747H313.046V251.054H310.958V245.747H305.748V243.855H310.958V238.522H313.046V243.855H318.28V245.747Z" fill="#E1E1E1" fill-opacity="0.1"/>
<path d="M343.54 245.747H338.306V251.054H336.217V245.747H331.008V243.855H336.217V238.522H338.306V243.855H343.54V245.747Z" fill="#E1E1E1" fill-opacity="0.1"/>
<path d="M368.799 245.747H363.565V251.054H361.477V245.747H356.267V243.855H361.477V238.522H363.565V243.855H368.799V245.747Z" fill="#E1E1E1" fill-opacity="0.1"/>
<path d="M394.059 245.747H388.825V251.054H386.736V245.747H381.527V243.855H386.736V238.522H388.825V243.855H394.059V245.747Z" fill="#E1E1E1" fill-opacity="0.1"/>
<path d="M419.319 245.747H414.085V251.054H411.996V245.747H406.787V243.855H411.996V238.522H414.085V243.855H419.319V245.747Z" fill="#E1E1E1" fill-opacity="0.1"/>
<path d="M444.578 245.747H439.344V251.054H437.256V245.747H432.046V243.855H437.256V238.522H439.344V243.855H444.578V245.747Z" fill="#E1E1E1" fill-opacity="0.1"/>
<path d="M469.838 245.747H464.604V251.054H462.515V245.747H457.306V243.855H462.515V238.522H464.604V243.855H469.838V245.747Z" fill="#E1E1E1" fill-opacity="0.1"/>
<path d="M495.097 245.747H489.863V251.054H487.775V245.747H482.565V243.855H487.775V238.522H489.863V243.855H495.097V245.747Z" fill="#E1E1E1" fill-opacity="0.1"/>
<path d="M520.357 245.747H515.123V251.054H513.034V245.747H507.825V243.855H513.034V238.522H515.123V243.855H520.357V245.747Z" fill="#E1E1E1" fill-opacity="0.1"/>
<path d="M545.616 245.747H540.383V251.054H538.294V245.747H533.085V243.855H538.294V238.522H540.383V243.855H545.616V245.747Z" fill="#E1E1E1" fill-opacity="0.1"/>
<path d="M570.876 245.747H565.642V251.054H563.554V245.747H558.344V243.855H563.554V238.522H565.642V243.855H570.876V245.747Z" fill="#E1E1E1" fill-opacity="0.1"/>
<path d="M596.135 245.747H590.902V251.054H588.813V245.747H583.604V243.855H588.813V238.522H590.902V243.855H596.135V245.747Z" fill="#E1E1E1" fill-opacity="0.1"/>
<path d="M621.395 245.747H616.161V251.054H614.073V245.747H608.863V243.855H614.073V238.522H616.161V243.855H621.395V245.747Z" fill="#E1E1E1" fill-opacity="0.1"/>
<path d="M646.655 245.747H641.421V251.054H639.332V245.747H634.123V243.855H639.332V238.522H641.421V243.855H646.655V245.747Z" fill="#E1E1E1" fill-opacity="0.1"/>
<path d="M116.204 291.006H110.97V296.314H108.881V291.006H103.672V289.114H108.881V283.782H110.97V289.114H116.204V291.006Z" fill="#E1E1E1" fill-opacity="0.1"/>
<path d="M141.463 291.006H136.229V296.314H134.141V291.006H128.931V289.114H134.141V283.782H136.229V289.114H141.463V291.006Z" fill="#E1E1E1" fill-opacity="0.1"/>
<path d="M166.723 291.006H161.489V296.314H159.4V291.006H154.191V289.114H159.4V283.782H161.489V289.114H166.723V291.006Z" fill="#E1E1E1" fill-opacity="0.1"/>
<path d="M191.982 291.006H186.748V296.314H184.66V291.006H179.451V289.114H184.66V283.782H186.748V289.114H191.982V291.006Z" fill="#E1E1E1" fill-opacity="0.1"/>
<path d="M217.242 291.006H212.008V296.314H209.919V291.006H204.71V289.114H209.919V283.782H212.008V289.114H217.242V291.006Z" fill="#E1E1E1" fill-opacity="0.1"/>
<path d="M242.501 291.006H237.268V296.314H235.179V291.006H229.97V289.114H235.179V283.782H237.268V289.114H242.501V291.006Z" fill="#E1E1E1" fill-opacity="0.1"/>
<path d="M267.761 291.006H262.527V296.314H260.439V291.006H255.229V289.114H260.439V283.782H262.527V289.114H267.761V291.006Z" fill="#E1E1E1" fill-opacity="0.1"/>
<path d="M293.021 291.006H287.787V296.314H285.698V291.006H280.489V289.114H285.698V283.782H287.787V289.114H293.021V291.006Z" fill="#E1E1E1" fill-opacity="0.1"/>
<path d="M318.28 291.006H313.046V296.314H310.958V291.006H305.748V289.114H310.958V283.782H313.046V289.114H318.28V291.006Z" fill="#E1E1E1" fill-opacity="0.1"/>
<path d="M343.54 291.006H338.306V296.314H336.217V291.006H331.008V289.114H336.217V283.782H338.306V289.114H343.54V291.006Z" fill="#E1E1E1" fill-opacity="0.1"/>
<path d="M368.8 291.006H363.566V296.314H361.477V291.006H356.268V289.114H361.477V283.782H363.566V289.114H368.8V291.006Z" fill="#E1E1E1" fill-opacity="0.1"/>
<path d="M394.059 291.006H388.825V296.314H386.737V291.006H381.527V289.114H386.737V283.782H388.825V289.114H394.059V291.006Z" fill="#E1E1E1" fill-opacity="0.1"/>
<path d="M419.319 291.006H414.085V296.314H411.996V291.006H406.787V289.114H411.996V283.782H414.085V289.114H419.319V291.006Z" fill="#E1E1E1" fill-opacity="0.1"/>
<path d="M444.578 291.006H439.344V296.314H437.256V291.006H432.046V289.114H437.256V283.782H439.344V289.114H444.578V291.006Z" fill="#E1E1E1" fill-opacity="0.1"/>
<path d="M469.838 291.006H464.604V296.314H462.515V291.006H457.306V289.114H462.515V283.782H464.604V289.114H469.838V291.006Z" fill="#E1E1E1" fill-opacity="0.1"/>
<path d="M495.097 291.006H489.863V296.314H487.775V291.006H482.566V289.114H487.775V283.782H489.863V289.114H495.097V291.006Z" fill="#E1E1E1" fill-opacity="0.1"/>
<path d="M520.357 291.006H515.123V296.314H513.034V291.006H507.825V289.114H513.034V283.782H515.123V289.114H520.357V291.006Z" fill="#E1E1E1" fill-opacity="0.1"/>
<path d="M545.616 291.006H540.383V296.314H538.294V291.006H533.085V289.114H538.294V283.782H540.383V289.114H545.616V291.006Z" fill="#E1E1E1" fill-opacity="0.1"/>
<path d="M570.876 291.006H565.642V296.314H563.554V291.006H558.344V289.114H563.554V283.782H565.642V289.114H570.876V291.006Z" fill="#E1E1E1" fill-opacity="0.1"/>
<path d="M596.135 291.006H590.902V296.314H588.813V291.006H583.604V289.114H588.813V283.782H590.902V289.114H596.135V291.006Z" fill="#E1E1E1" fill-opacity="0.1"/>
<path d="M166.723 336.266H161.489V341.574H159.4V336.266H154.191V334.374H159.4V329.042H161.489V334.374H166.723V336.266Z" fill="#E1E1E1" fill-opacity="0.1"/>
<path d="M191.982 336.266H186.748V341.574H184.66V336.266H179.451V334.374H184.66V329.042H186.748V334.374H191.982V336.266Z" fill="#E1E1E1" fill-opacity="0.1"/>
<path d="M217.242 336.266H212.008V341.574H209.92V336.266H204.71V334.374H209.92V329.042H212.008V334.374H217.242V336.266Z" fill="#E1E1E1" fill-opacity="0.1"/>
<path d="M242.502 336.266H237.268V341.574H235.179V336.266H229.97V334.374H235.179V329.042H237.268V334.374H242.502V336.266Z" fill="#E1E1E1" fill-opacity="0.1"/>
<path d="M267.761 336.266H262.527V341.574H260.439V336.266H255.229V334.374H260.439V329.042H262.527V334.374H267.761V336.266Z" fill="#E1E1E1" fill-opacity="0.1"/>
<path d="M293.021 336.266H287.787V341.574H285.698V336.266H280.489V334.374H285.698V329.042H287.787V334.374H293.021V336.266Z" fill="#E1E1E1" fill-opacity="0.1"/>
<path d="M318.28 336.266H313.047V341.574H310.958V336.266H305.749V334.374H310.958V329.042H313.047V334.374H318.28V336.266Z" fill="#E1E1E1" fill-opacity="0.1"/>
<path d="M343.54 336.266H338.306V341.574H336.217V336.266H331.008V334.374H336.217V329.042H338.306V334.374H343.54V336.266Z" fill="#E1E1E1" fill-opacity="0.1"/>
<path d="M368.8 336.266H363.566V341.574H361.477V336.266H356.268V334.374H361.477V329.042H363.566V334.374H368.8V336.266Z" fill="#E1E1E1" fill-opacity="0.1"/>
<path d="M394.059 336.266H388.825V341.574H386.737V336.266H381.527V334.374H386.737V329.042H388.825V334.374H394.059V336.266Z" fill="#E1E1E1" fill-opacity="0.1"/>
<path d="M419.319 336.266H414.085V341.574H411.996V336.266H406.787V334.374H411.996V329.042H414.085V334.374H419.319V336.266Z" fill="#E1E1E1" fill-opacity="0.1"/>
<path d="M444.578 336.266H439.344V341.574H437.256V336.266H432.046V334.374H437.256V329.042H439.344V334.374H444.578V336.266Z" fill="#E1E1E1" fill-opacity="0.1"/>
<path d="M469.838 336.266H464.604V341.574H462.515V336.266H457.306V334.374H462.515V329.042H464.604V334.374H469.838V336.266Z" fill="#E1E1E1" fill-opacity="0.1"/>
<path d="M495.097 336.266H489.863V341.574H487.775V336.266H482.566V334.374H487.775V329.042H489.863V334.374H495.097V336.266Z" fill="#E1E1E1" fill-opacity="0.1"/>
<path d="M520.357 336.266H515.123V341.574H513.035V336.266H507.825V334.374H513.035V329.042H515.123V334.374H520.357V336.266Z" fill="#E1E1E1" fill-opacity="0.1"/>
<path d="M545.616 336.266H540.383V341.574H538.294V336.266H533.085V334.374H538.294V329.042H540.383V334.374H545.616V336.266Z" fill="#E1E1E1" fill-opacity="0.1"/>
</g>
<defs>
<clipPath id="clip0_115_275">
<rect width="700" height="353.817" fill="white" transform="translate(0 0.483887)"/>
</clipPath>
</defs>
</svg>
